<svg width="39" height="39" viewBox="0 0 39 39" fill="none" xmlns="http://www.w3.org/2000/svg">
<path d="M13.4062 2.4375C15.1191 2.43711 16.8082 2.83794 18.3382 3.60788C19.8683 4.37781 21.1967 5.49545 22.217 6.87121C23.2373 8.24698 23.9212 9.84262 24.2139 11.5303C24.5065 13.2179 24.3997 14.9507 23.9021 16.5896L36.5625 29.25V36.5625H29.25L16.5896 23.9021C15.0809 24.3601 13.4912 24.4874 11.9289 24.2754C10.3665 24.0634 8.86826 23.5171 7.53615 22.6737C6.20403 21.8303 5.0694 20.7096 4.20957 19.388C3.34974 18.0664 2.78493 16.575 2.55363 15.0154C2.32233 13.4558 2.42997 11.8647 2.86922 10.3504C3.30848 8.83617 4.06901 7.43442 5.099 6.24068C6.12899 5.04695 7.40422 4.0893 8.8378 3.43299C10.2714 2.77668 11.8296 2.43713 13.4062 2.4375ZM13.4062 21.9375C14.2453 21.937 15.0798 21.813 15.8827 21.5694L17.2807 21.1453L18.3129 22.1776L22.1898 26.0544L23.8704 24.375L25.5938 26.0983L23.9131 27.779L25.846 29.7119L27.5267 28.0312L29.25 29.7546L27.5693 31.4352L30.2591 34.125H34.125V30.2591L22.1788 18.3129L21.1453 17.2807L21.5694 15.8827C22.0904 14.1655 22.0565 12.3278 21.4727 10.6309C20.8889 8.93399 19.7849 7.46439 18.3178 6.43113C16.8506 5.39787 15.095 4.85357 13.3006 4.87565C11.5062 4.89772 9.76451 5.48505 8.3232 6.55409C6.88189 7.62314 5.81438 9.11944 5.27252 10.8302C4.73066 12.5409 4.74204 14.379 5.30505 16.0828C5.86805 17.7867 6.95402 19.2697 8.40846 20.3208C9.8629 21.3719 11.6117 21.9376 13.4062 21.9375Z" fill="white"/>
<path d="M12.1875 14.625C10.8413 14.625 9.75 13.5337 9.75 12.1875C9.75 10.8413 10.8413 9.75 12.1875 9.75C13.5337 9.75 14.625 10.8413 14.625 12.1875C14.625 13.5337 13.5337 14.625 12.1875 14.625Z" fill="white"/>
</svg>
