<svg width="26" height="25" viewBox="0 0 26 25" fill="none" xmlns="http://www.w3.org/2000/svg">
<path d="M10.5729 7.25C10.0724 7.25 9.66663 7.65574 9.66663 8.15625V12.0557C9.66663 13.575 10.4539 14.9857 11.7468 15.7835L14.6349 17.5655C15.0315 17.8102 15.5506 17.6969 15.8091 17.3092C16.0832 16.8981 15.958 16.3415 15.5344 16.0873L13.1737 14.6709C12.1224 14.0401 11.4791 12.904 11.4791 11.678V8.15625C11.4791 7.65574 11.0734 7.25 10.5729 7.25Z" fill="#625757"/>
<path d="M20.45 12.0834C19.8115 12.0834 19.3333 12.6532 19.3333 13.2917C19.3333 18.0042 15.5875 21.75 10.875 21.75C6.1625 21.75 2.41667 18.0042 2.41667 13.2917C2.41667 8.57919 6.1625 4.83335 10.875 4.83335C11.1739 4.83335 11.4683 4.84844 11.7576 4.87809C12.5339 4.95764 13.2917 4.39749 13.2917 3.61719C13.2917 3.07674 12.9203 2.60052 12.3853 2.52389C11.8929 2.45336 11.3886 2.41669 10.875 2.41669C4.83333 2.41669 0 7.25002 0 13.2917C0 19.3334 4.83333 24.1667 10.875 24.1667C16.9167 24.1667 21.75 19.3334 21.75 13.2917C21.75 13.2396 21.7496 13.1877 21.7488 13.136C21.7398 12.5336 21.2244 12.0834 20.622 12.0834H20.45Z" fill="#625757"/>
<path d="M23.5625 3.625C22.5615 3.625 21.75 2.81352 21.75 1.8125V1.20833C21.75 0.540989 21.2091 0 20.5417 0C19.8744 0 19.3334 0.540989 19.3334 1.20833V1.8125C19.3334 2.81352 18.5219 3.625 17.5209 3.625H16.9167C16.2494 3.625 15.7084 4.16599 15.7084 4.83333C15.7084 5.50068 16.2494 6.04167 16.9167 6.04167H17.5209C18.5219 6.04167 19.3334 6.85315 19.3334 7.85417V8.45833C19.3334 9.12568 19.8744 9.66667 20.5417 9.66667C21.2091 9.66667 21.75 9.12568 21.75 8.45833V7.85417C21.75 6.85315 22.5615 6.04167 23.5625 6.04167H24.1667C24.8341 6.04167 25.375 5.50068 25.375 4.83333C25.375 4.16599 24.8341 3.625 24.1667 3.625H23.5625Z" fill="#625757"/>
</svg>
