<svg width="84" height="84" viewBox="0 0 84 84" fill="none" xmlns="http://www.w3.org/2000/svg">
<g clip-path="url(#clip0_21_319)">
<path d="M53.9383 38.2788C56.8212 38.2788 59.1582 35.9418 59.1582 33.0589C59.1582 30.1761 56.8212 27.8391 53.9383 27.8391C51.0555 27.8391 48.7185 30.1761 48.7185 33.0589C48.7185 35.9418 51.0555 38.2788 53.9383 38.2788Z" fill="#8C8683"/>
<path d="M29.579 38.2788C32.4618 38.2788 34.7988 35.9418 34.7988 33.0589C34.7988 30.1761 32.4618 27.8391 29.579 27.8391C26.6961 27.8391 24.3591 30.1761 24.3591 33.0589C24.3591 35.9418 26.6961 38.2788 29.579 38.2788Z" fill="#8C8683"/>
<path d="M41.7238 6.95972C22.5148 6.95972 6.95972 22.5496 6.95972 41.7586C6.95972 60.9675 22.5148 76.5574 41.7238 76.5574C60.9675 76.5574 76.5574 60.9675 76.5574 41.7586C76.5574 22.5496 60.9675 6.95972 41.7238 6.95972ZM41.7586 69.5977C26.3775 69.5977 13.9195 57.1397 13.9195 41.7586C13.9195 26.3775 26.3775 13.9195 41.7586 13.9195C57.1397 13.9195 69.5977 26.3775 69.5977 41.7586C69.5977 57.1397 57.1397 69.5977 41.7586 69.5977ZM24.3591 48.7183C27.0735 56.8613 33.8244 62.6379 41.7586 62.6379C49.6927 62.6379 56.4437 56.8613 59.158 48.7183H24.3591Z" fill="#8C8683"/>
</g>
<defs>
<clipPath id="clip0_21_319">
<rect width="83.5172" height="83.5172" fill="white"/>
</clipPath>
</defs>
</svg>
