<svg width="28" height="28" viewBox="0 0 28 28" fill="none" xmlns="http://www.w3.org/2000/svg">
<path d="M20.6316 25.3768H2.94737V7.36842H13.2632V4.42105H2.94737C1.32632 4.42105 0 5.74737 0 7.36842V25.0526C0 26.6737 1.32632 28 2.94737 28H20.6316C22.2526 28 23.5789 26.6737 23.5789 25.0526V14.7368H20.6316V25.3768Z" fill="#625757"/>
<path d="M23.5789 0H20.6315V4.42105H16.2104C16.2252 4.43579 16.2104 7.36842 16.2104 7.36842H20.6315V11.7747C20.6462 11.7895 23.5789 11.7747 23.5789 11.7747V7.36842H27.9999V4.42105H23.5789V0Z" fill="#625757"/>
<path d="M17.6841 10.3158H5.89465V13.2632H17.6841V10.3158Z" fill="#625757"/>
<path d="M5.89465 14.7368V17.6842H17.6841V14.7368H13.2631H5.89465Z" fill="#625757"/>
<path d="M17.6841 19.1579H5.89465V22.1053H17.6841V19.1579Z" fill="#625757"/>
</svg>
